<svg viewBox="0 0 200 200" xmlns="http://www.w3.org/2000/svg">
    <!-- Top Hand -->
    <g transform="translate(100, 100) rotate(0) translate(-35, -75)">
        <!-- Hand Base -->
        <path d="M0,0 L50,0 L50,40 L0,40 Z" fill="#E0F2FE" stroke="#5D1F1E" stroke-width="5" stroke-linejoin="round"/>
        <!-- Wrist -->
        <path d="M0,15 L-10,15 L-10,25 L0,25 Z" fill="#E0F2FE" stroke="#5D1F1E" stroke-width="5" stroke-linejoin="round"/>
        <!-- Thumb -->
        <path d="M50,15 L60,15 L60,25 L50,25 Z" fill="#E0F2FE" stroke="#5D1F1E" stroke-width="5" stroke-linejoin="round"/>
        <!-- Fingers -->
        <path d="M10,0 L10,-10 L15,-10 L15,0 Z" fill="#E0F2FE" stroke="#5D1F1E" stroke-width="5" stroke-linejoin="round"/>
        <path d="M20,0 L20,-10 L25,-10 L25,0 Z" fill="#E0F2FE" stroke="#5D1F1E" stroke-width="5" stroke-linejoin="round"/>
        <path d="M30,0 L30,-10 L35,-10 L35,0 Z" fill="#E0F2FE" stroke="#5D1F1E" stroke-width="5" stroke-linejoin="round"/>
        <path d="M40,0 L40,-10 L45,-10 L45,0 Z" fill="#E0F2FE" stroke="#5D1F1E" stroke-width="5" stroke-linejoin="round"/>
        <!-- Color Block -->
        <rect x="15" y="10" width="20" height="20" fill="#F9A826" stroke="#5D1F1E" stroke-width="5" stroke-linejoin="round"/>
    </g>

    <!-- Right Hand -->
    <g transform="translate(100, 100) rotate(90) translate(-35, -75)">
        <!-- Hand Base -->
        <path d="M0,0 L50,0 L50,40 L0,40 Z" fill="#E0F2FE" stroke="#5D1F1E" stroke-width="5" stroke-linejoin="round"/>
        <!-- Wrist -->
        <path d="M0,15 L-10,15 L-10,25 L0,25 Z" fill="#E0F2FE" stroke="#5D1F1E" stroke-width="5" stroke-linejoin="round"/>
        <!-- Thumb -->
        <path d="M50,15 L60,15 L60,25 L50,25 Z" fill="#E0F2FE" stroke="#5D1F1E" stroke-width="5" stroke-linejoin="round"/>
        <!-- Fingers -->
        <path d="M10,0 L10,-10 L15,-10 L15,0 Z" fill="#E0F2FE" stroke="#5D1F1E" stroke-width="5" stroke-linejoin="round"/>
        <path d="M20,0 L20,-10 L25,-10 L25,0 Z" fill="#E0F2FE" stroke="#5D1F1E" stroke-width="5" stroke-linejoin="round"/>
        <path d="M30,0 L30,-10 L35,-10 L35,0 Z" fill="#E0F2FE" stroke="#5D1F1E" stroke-width="5" stroke-linejoin="round"/>
        <path d="M40,0 L40,-10 L45,-10 L45,0 Z" fill="#E0F2FE" stroke="#5D1F1E" stroke-width="5" stroke-linejoin="round"/>
        <!-- Color Block -->
        <rect x="15" y="10" width="20" height="20" fill="#EB5E55" stroke="#5D1F1E" stroke-width="5" stroke-linejoin="round"/>
    </g>

    <!-- Bottom Hand -->
    <g transform="translate(100, 100) rotate(180) translate(-35, -75)">
        <!-- Hand Base -->
        <path d="M0,0 L50,0 L50,40 L0,40 Z" fill="#E0F2FE" stroke="#5D1F1E" stroke-width="5" stroke-linejoin="round"/>
        <!-- Wrist -->
        <path d="M0,15 L-10,15 L-10,25 L0,25 Z" fill="#E0F2FE" stroke="#5D1F1E" stroke-width="5" stroke-linejoin="round"/>
        <!-- Thumb -->
        <path d="M50,15 L60,15 L60,25 L50,25 Z" fill="#E0F2FE" stroke="#5D1F1E" stroke-width="5" stroke-linejoin="round"/>
        <!-- Fingers -->
        <path d="M10,0 L10,-10 L15,-10 L15,0 Z" fill="#E0F2FE" stroke="#5D1F1E" stroke-width="5" stroke-linejoin="round"/>
        <path d="M20,0 L20,-10 L25,-10 L25,0 Z" fill="#E0F2FE" stroke="#5D1F1E" stroke-width="5" stroke-linejoin="round"/>
        <path d="M30,0 L30,-10 L35,-10 L35,0 Z" fill="#E0F2FE" stroke="#5D1F1E" stroke-width="5" stroke-linejoin="round"/>
        <path d="M40,0 L40,-10 L45,-10 L45,0 Z" fill="#E0F2FE" stroke="#5D1F1E" stroke-width="5" stroke-linejoin="round"/>
        <!-- Color Block -->
        <rect x="15" y="10" width="20" height="20" fill="#F4D03F" stroke="#5D1F1E" stroke-width="5" stroke-linejoin="round"/>
    </g>

    <!-- Left Hand -->
    <g transform="translate(100, 100) rotate(270) translate(-35, -75)">
        <!-- Hand Base -->
        <path d="M0,0 L50,0 L50,40 L0,40 Z" fill="#E0F2FE" stroke="#5D1F1E" stroke-width="5" stroke-linejoin="round"/>
        <!-- Wrist -->
        <path d="M0,15 L-10,15 L-10,25 L0,25 Z" fill="#E0F2FE" stroke="#5D1F1E" stroke-width="5" stroke-linejoin="round"/>
        <!-- Thumb -->
        <path d="M50,15 L60,15 L60,25 L50,25 Z" fill="#E0F2FE" stroke="#5D1F1E" stroke-width="5" stroke-linejoin="round"/>
        <!-- Fingers -->
        <path d="M10,0 L10,-10 L15,-10 L15,0 Z" fill="#E0F2FE" stroke="#5D1F1E" stroke-width="5" stroke-linejoin="round"/>
        <path d="M20,0 L20,-10 L25,-10 L25,0 Z" fill="#E0F2FE" stroke="#5D1F1E" stroke-width="5" stroke-linejoin="round"/>
        <path d="M30,0 L30,-10 L35,-10 L35,0 Z" fill="#E0F2FE" stroke="#5D1F1E" stroke-width="5" stroke-linejoin="round"/>
        <path d="M40,0 L40,-10 L45,-10 L45,0 Z" fill="#E0F2FE" stroke="#5D1F1E" stroke-width="5" stroke-linejoin="round"/>
        <!-- Color Block -->
        <rect x="15" y="10" width="20" height="20" fill="#E74C3C" stroke="#5D1F1E" stroke-width="5" stroke-linejoin="round"/>
    </g>
</svg>